# This file uses centimeters as units for non-parametric coordinates.

mtllib LCDBack.mtl
g default
v -1.358334 0.572846 0.037496
v -1.169793 0.572966 0.037496
v -1.378137 0.785643 0.037496
v -1.142986 0.773756 0.037496
v -1.378137 0.785643 -0.211163
v -1.142986 0.773756 -0.211163
v -1.358334 0.572846 -0.211163
v -1.169793 0.572966 -0.211163
v 1.115020 0.470944 -0.211163
v 1.115020 0.470944 0.037496
v 1.070534 0.689759 -0.211163
v 1.070534 0.689759 0.037496
v 1.284986 0.441016 -0.211163
v 1.284986 0.441016 0.037496
v 1.299147 0.681551 -0.211163
v 1.299147 0.681551 0.037496
v 1.046798 -0.501723 -0.211163
v 1.046798 -0.501723 0.037496
v 1.237469 -0.492376 -0.211163
v 1.237469 -0.492376 0.037496
v 1.008751 -0.667842 -0.211163
v 1.008751 -0.667842 0.037496
v 1.229186 -0.665571 -0.211163
v 1.229186 -0.665571 0.037496
v -0.979175 -0.449680 -0.212026
v -0.979175 -0.449680 0.037496
v -0.959685 -0.662708 -0.211163
v -0.959685 -0.662708 0.037496
v -1.233189 -0.436994 -0.210299
v -1.233189 -0.436994 0.037496
v -1.218164 -0.661959 -0.211163
v -1.218164 -0.661959 0.037496
vt 0.285096 0.762921
vt 0.285491 0.726456
vt 0.324371 0.721187
vt 0.326676 0.766802
vt 0.090282 0.738778
vt 0.087454 0.689542
vt 0.265734 0.283998
vt 0.308111 0.292690
vt 0.046200 0.685768
vt 0.046345 0.735823
vt 0.077375 0.297209
vt 0.259880 0.251087
vt 0.306518 0.248341
vt 0.045206 0.304577
vt 0.079244 0.260282
vt 0.045646 0.261889
vt 0.326095 0.766615
vt 0.796233 0.707365
vt 0.517883 0.713844
vt 0.519607 0.759271
vt 0.989365 0.693192
vt 0.501623 0.285346
vt 0.306435 0.248527
vt 0.499947 0.241184
vt 0.519042 0.759502
vt 0.792570 0.657445
vt 0.557051 0.716150
vt 0.559841 0.752555
vt 0.985702 0.643272
vt 0.543219 0.273468
vt 0.751721 0.664335
vt 0.752999 0.713570
vt 0.499850 0.241005
vt 0.546503 0.240209
vt 0.732037 0.272366
vt 0.954680 0.220530
vt 0.796219 0.707367
vt 0.727434 0.235686
vt 0.764672 0.277275
vt 0.760998 0.234744
vt 0.047418 0.733467
vt 0.249976 0.057689
vt 0.296496 0.055320
vt 0.306341 0.248721
vt 0.023602 0.925648
vt 0.069457 0.066878
vt 0.045806 0.261985
vt 0.035961 0.068584
vt 0.260909 0.955056
vt 0.761548 0.234703
vt 0.325621 0.767943
vt 0.301805 0.960124
vt 0.066919 0.930339
vt 0.957804 0.263103
vn 0.000000 -0.000000 1.000000
vn 0.000000 -0.000000 1.000000
vn 0.000000 -0.000000 1.000000
vn 0.000000 -0.000000 1.000000
vn 0.050486 0.998725 0.000000
vn 0.039128 0.999234 0.000000
vn 0.039128 0.999234 0.000000
vn 0.050486 0.998725 0.000000
vn 0.000000 -0.000000 -1.000000
vn -0.000000 -0.000000 -1.000000
vn -0.000000 -0.000000 -1.000000
vn 0.000000 -0.000000 -1.000000
vn 0.998623 -0.052467 0.000000
vn 0.998623 -0.052467 0.000000
vn 0.998271 -0.058772 0.000000
vn 0.998271 -0.058772 0.000000
vn -0.995698 -0.092657 -0.000000
vn -0.995698 -0.092657 -0.000000
vn -0.995698 -0.092657 -0.000000
vn -0.995698 -0.092657 -0.000000
vn -0.000000 -0.000000 -1.000000
vn -0.000000 -0.000000 -1.000000
vn 0.037729 0.999288 0.000000
vn 0.037729 0.999288 0.000000
vn -0.000000 -0.000000 1.000000
vn -0.000000 -0.000000 1.000000
vn -0.001308 -0.999999 0.000000
vn -0.001308 -0.999999 0.000000
vn 0.010298 -0.999947 0.000000
vn 0.010298 -0.999947 0.000000
vn -0.000000 0.000000 -1.000000
vn -0.000000 0.000000 -1.000000
vn 0.035877 0.999356 0.000000
vn 0.035877 0.999356 0.000000
vn -0.000000 0.000000 1.000000
vn -0.000000 0.000000 1.000000
vn 0.000000 0.000000 -1.000000
vn 0.000114 -0.001424 -0.999999
vn 0.998731 -0.050361 0.000000
vn 0.998731 -0.050361 0.000000
vn 0.000000 0.000000 1.000000
vn 0.000000 0.000000 1.000000
vn -0.993619 -0.112792 -0.000000
vn -0.993626 -0.112728 -0.000000
vn -0.997777 -0.066641 0.000000
vn -0.997777 -0.066641 0.000000
vn 0.000000 0.000000 -1.000000
vn 0.000172 -0.002140 -0.999998
vn 0.998858 -0.047771 0.000000
vn 0.998858 -0.047771 0.000000
vn 0.000000 -0.000000 1.000000
vn 0.000000 -0.000000 1.000000
vn -0.000229 -0.002052 -0.999998
vn -0.001475 -0.001551 -0.999998
vn -0.002641 -0.999997 0.000000
vn -0.002641 -0.999997 0.000000
vn 0.000000 0.000000 1.000000
vn 0.000000 0.000000 1.000000
vn -0.003376 -0.000266 -0.999994
vn -0.003825 -0.000550 -0.999992
vn -0.002896 -0.999996 0.000000
vn -0.002896 -0.999996 0.000000
vn 0.000000 0.000000 1.000000
vn -0.000000 0.000000 1.000000
vn -0.003918 -0.000609 -0.999992
vn -0.003918 -0.000609 -0.999992
vn -0.992409 -0.122985 -0.000000
vn -0.992409 -0.122985 -0.000000
vn 0.000000 0.000000 1.000000
vn 0.000000 0.000000 1.000000
vn -0.000000 0.000000 1.000000
vn -0.000000 0.000000 1.000000
vn -0.000000 0.000000 1.000000
vn -0.000000 0.000000 1.000000
vn 0.000216 0.000446 -1.000000
vn 0.000216 0.000446 -1.000000
vn 0.000216 0.000446 -1.000000
vn 0.000216 0.000446 -1.000000
s 1
g pCube5
usemtl initialShadingGroup
f 1/1/1 2/2/2 4/3/3 3/4/4
s 2
f 3/17/5 4/3/6 6/19/7 5/20/8
s 3
f 5/25/9 6/19/10 8/27/11 7/28/12
s 4
f 14/12/13 13/42/14 15/43/15 16/44/16
s off
f 7/49/17 1/1/18 3/51/19 5/52/20
s 3
f 8/27/11 6/19/10 11/22/21 9/30/22
s 2
f 6/19/7 4/3/6 12/8/23 11/22/24
s 1
f 4/3/3 2/2/2 10/7/25 12/8/26
s 5
f 22/54/27 21/39/28 23/50/29 24/36/30
s 3
f 9/30/22 11/22/21 15/33/31 13/34/32
s 2
f 11/22/24 12/8/23 16/23/33 15/24/34
s 1
f 12/8/26 10/7/25 14/12/35 16/13/36
s 3
f 9/30/22 13/34/32 19/38/37 17/35/38
s 4
f 13/42/14 14/12/13 20/15/39 19/46/40
s 1
f 14/12/35 10/7/25 18/11/41 20/15/42
s 6
f 30/5/43 29/53/44 31/45/45 32/41/46
s 3
f 17/35/38 19/38/37 23/40/47 21/39/48
s 4
f 19/46/40 20/15/39 24/47/49 23/48/50
s 1
f 20/15/42 18/11/41 22/14/51 24/16/52
s 3
f 17/35/38 21/39/48 27/26/53 25/31/54
s 5
f 21/39/28 22/54/27 28/29/55 27/26/56
s 1
f 22/14/51 18/11/41 26/6/57 28/9/58
s 3
f 25/31/54 27/26/53 31/37/59 29/32/60
s 5
f 27/26/56 28/29/55 32/21/61 31/18/62
s 1
f 28/9/58 26/6/57 30/5/63 32/10/64
s 3
f 25/31/54 29/32/60 7/28/65 8/27/66
s 6
f 29/53/44 30/5/43 1/1/67 7/49/68
s 1
f 30/5/63 26/6/57 2/2/69 1/1/70
s off
f 10/7/71 2/2/72 26/6/73 18/11/74
f 9/30/75 17/35/76 25/31/77 8/27/78
