# This file uses centimeters as units for non-parametric coordinates.

mtllib WallButton_Button.mtl
g default
v 39.155814 5.621621 -0.003391
v 36.175311 5.621619 -14.987376
v 27.687567 5.621617 -27.690185
v 14.984758 5.621615 -36.177928
v 0.000772 5.621615 -39.158432
v -14.983213 5.621615 -36.177928
v -27.686021 5.621617 -27.690185
v -36.173764 5.621619 -14.987377
v -39.154267 5.621621 -0.003397
v -36.173770 5.621623 14.980588
v -27.686027 5.621626 27.683394
v -14.983216 5.621627 36.171146
v 0.000775 5.621627 39.151647
v 14.984767 5.621627 36.171146
v 27.687576 5.621626 27.683394
v 36.175326 5.621623 14.980578
v 0.000774 64.566863 -0.003400
v 47.791627 64.566863 -0.003400
v 51.861477 59.547603 -0.003399
v 44.153756 64.566860 -18.292172
v 47.913811 59.547600 -19.849630
v 36.671829 59.547597 -36.674456
v 33.794013 64.566857 -33.796640
v 18.289545 64.566855 -44.156383
v 19.847004 59.547595 -47.916437
v 0.000772 59.547595 -51.864103
v 0.000772 64.566855 -47.794254
v -18.288000 64.566855 -44.156383
v -19.845462 59.547595 -47.916437
v -36.670280 59.547597 -36.674456
v -33.792463 64.566857 -33.796640
v -44.152209 64.566860 -18.292175
v -47.912261 59.547600 -19.849633
v -51.859927 59.547603 -0.003407
v -47.790077 64.566863 -0.003407
v -44.152221 64.566866 18.285358
v -47.912276 59.547606 19.842821
v -36.670288 59.547609 36.667641
v -33.792469 64.566868 33.789824
v -18.287998 64.566870 44.149588
v -19.845463 59.547611 47.909641
v 0.000775 59.547612 51.857295
v 0.000775 64.566870 47.787450
v 18.289548 64.566870 44.149582
v 19.847013 59.547611 47.909635
v 36.671838 59.547609 36.667641
v 33.794019 64.566868 33.789818
v 44.153774 64.566866 18.285347
v 47.913826 59.547606 19.842810
vt 0.747551 0.935229
vt 0.793982 0.853631
vt 0.831198 0.449329
vt 0.826306 0.720639
vt 0.652322 0.472472
vt 0.694944 0.582705
vt 0.430377 0.380539
vt 0.689494 0.659185
vt 0.730004 0.982059
vt 0.746775 0.985990
vt 0.666178 0.355936
vt 0.368949 0.472472
vt 0.816151 0.451298
vt 0.538818 0.642341
vt 0.667231 0.772261
vt 0.779281 0.848965
vt 0.628026 0.881202
vt 0.820768 0.495574
vt 0.630751 0.420396
vt 0.817515 0.673838
vt 0.652322 0.528838
vt 0.806048 0.317441
vt 0.836846 0.630304
vt 0.590894 0.620771
vt 0.676519 0.734911
vt 0.482452 0.358968
vt 0.764374 0.891869
vt 0.482452 0.642341
vt 0.390519 0.580914
vt 0.835921 0.494324
vt 0.694838 0.544415
vt 0.802735 0.762161
vt 0.693162 0.620993
vt 0.510635 0.500655
vt 0.792083 0.805775
vt 0.656087 0.809147
vt 0.821620 0.629316
vt 0.683254 0.430431
vt 0.643062 0.845484
vt 0.806914 0.809734
vt 0.809480 0.407348
vt 0.590894 0.380539
vt 0.390519 0.420396
vt 0.782790 0.274623
vt 0.838455 0.539565
vt 0.832690 0.675577
vt 0.815709 0.360676
vt 0.610972 0.914822
vt 0.654648 0.319156
vt 0.824374 0.404719
vt 0.675661 0.393003
vt 0.823527 0.584692
vt 0.838767 0.584930
vt 0.688985 0.468191
vt 0.823239 0.540075
vt 0.762617 0.940765
vt 0.538819 0.358968
vt 0.791598 0.320423
vt 0.779050 0.897157
vt 0.817705 0.765388
vt 0.811217 0.718153
vt 0.630751 0.580914
vt 0.368949 0.528838
vt 0.430376 0.620771
vt 0.683943 0.697189
vt 0.692850 0.506213
vt 0.798147 0.273765
vt 0.801024 0.363780
vn 0.899256 -0.229333 0.372484
vn 0.973348 -0.229333 -0.000000
vn 0.977266 0.212015 -0.000000
vn 0.902876 0.212015 0.373983
vn 0.688261 -0.229334 -0.688261
vn 0.372484 -0.229334 -0.899256
vn 0.373984 0.212015 -0.902876
vn 0.691032 0.212015 -0.691032
vn 0.180624 0.881602 -0.436065
vn 0.000000 0.881602 -0.471994
vn -0.000000 1.000000 -0.000000
vn 0.333750 0.881602 -0.333750
vn 0.000000 -0.229334 -0.973348
vn -0.372484 -0.229334 -0.899256
vn -0.373984 0.212015 -0.902876
vn 0.000000 0.212015 -0.977266
vn -0.180624 0.881602 -0.436066
vn -0.333750 0.881602 -0.333751
vn -0.000000 1.000000 -0.000000
vn 0.000000 0.881602 -0.471994
vn -0.688261 -0.229334 -0.688261
vn -0.899256 -0.229333 -0.372484
vn -0.902876 0.212015 -0.373984
vn -0.691032 0.212015 -0.691032
vn -0.436066 0.881602 -0.180625
vn -0.471994 0.881602 -0.000000
vn -0.000000 1.000000 -0.000000
vn -0.333750 0.881602 -0.333751
vn -0.973348 -0.229333 -0.000000
vn -0.899256 -0.229333 0.372484
vn -0.902877 0.212015 0.373983
vn -0.977266 0.212015 -0.000000
vn -0.436066 0.881602 0.180624
vn -0.333750 0.881602 0.333750
vn -0.000000 1.000000 -0.000000
vn -0.471994 0.881602 -0.000000
vn -0.688261 -0.229333 0.688261
vn -0.372484 -0.229333 0.899256
vn -0.373984 0.212015 0.902876
vn -0.691032 0.212015 0.691031
vn -0.180624 0.881602 0.436065
vn 0.000000 0.881602 0.471994
vn -0.000000 1.000000 -0.000000
vn -0.333750 0.881602 0.333750
vn 0.000000 -0.229333 0.973348
vn 0.372484 -0.229333 0.899256
vn 0.373984 0.212015 0.902876
vn 0.000000 0.212015 0.977266
vn 0.180624 0.881602 0.436065
vn 0.333750 0.881602 0.333750
vn -0.000000 1.000000 -0.000000
vn 0.000000 0.881602 0.471994
vn 0.688261 -0.229333 0.688261
vn 0.899256 -0.229333 0.372484
vn 0.902876 0.212015 0.373983
vn 0.691032 0.212016 0.691031
vn 0.436066 0.881602 0.180624
vn 0.471994 0.881602 -0.000000
vn -0.000000 1.000000 -0.000000
vn 0.333750 0.881602 0.333750
vn 0.973348 -0.229333 -0.000000
vn 0.899256 -0.229334 -0.372484
vn 0.902876 0.212015 -0.373984
vn 0.977266 0.212015 -0.000000
vn 0.372484 -0.229334 -0.899256
vn 0.000000 -0.229334 -0.973348
vn 0.000000 0.212015 -0.977266
vn 0.373984 0.212015 -0.902876
vn -0.372484 -0.229334 -0.899256
vn -0.688261 -0.229334 -0.688261
vn -0.691032 0.212015 -0.691032
vn -0.373984 0.212015 -0.902876
vn -0.899256 -0.229333 -0.372484
vn -0.973348 -0.229333 -0.000000
vn -0.977266 0.212015 -0.000000
vn -0.902876 0.212015 -0.373984
vn -0.899256 -0.229333 0.372484
vn -0.688261 -0.229333 0.688261
vn -0.691032 0.212015 0.691031
vn -0.902877 0.212015 0.373983
vn -0.372484 -0.229333 0.899256
vn 0.000000 -0.229333 0.973348
vn 0.000000 0.212015 0.977266
vn -0.373984 0.212015 0.902876
vn 0.372484 -0.229333 0.899256
vn 0.688261 -0.229333 0.688261
vn 0.691032 0.212016 0.691031
vn 0.373984 0.212015 0.902876
vn 0.899256 -0.229334 -0.372484
vn 0.688261 -0.229334 -0.688261
vn 0.691032 0.212015 -0.691032
vn 0.902876 0.212015 -0.373984
vn 0.436065 0.881602 -0.180624
vn 0.471994 0.881602 -0.000000
vn 0.977266 0.212015 -0.000000
vn 0.902876 0.212015 -0.373984
vn 0.333750 0.881602 -0.333750
vn 0.436065 0.881602 -0.180624
vn 0.902876 0.212015 -0.373984
vn 0.691032 0.212015 -0.691032
vn 0.180624 0.881602 -0.436065
vn 0.333750 0.881602 -0.333750
vn 0.691032 0.212015 -0.691032
vn 0.373984 0.212015 -0.902876
vn 0.000000 0.881602 -0.471994
vn 0.180624 0.881602 -0.436065
vn 0.373984 0.212015 -0.902876
vn 0.000000 0.212015 -0.977266
vn -0.180624 0.881602 -0.436066
vn 0.000000 0.881602 -0.471994
vn 0.000000 0.212015 -0.977266
vn -0.373984 0.212015 -0.902876
vn -0.333750 0.881602 -0.333751
vn -0.180624 0.881602 -0.436066
vn -0.373984 0.212015 -0.902876
vn -0.691032 0.212015 -0.691032
vn -0.436066 0.881602 -0.180625
vn -0.333750 0.881602 -0.333751
vn -0.691032 0.212015 -0.691032
vn -0.902876 0.212015 -0.373984
vn -0.471994 0.881602 -0.000000
vn -0.436066 0.881602 -0.180625
vn -0.902876 0.212015 -0.373984
vn -0.977266 0.212015 -0.000000
vn -0.436066 0.881602 0.180624
vn -0.471994 0.881602 -0.000000
vn -0.977266 0.212015 -0.000000
vn -0.902877 0.212015 0.373983
vn -0.333750 0.881602 0.333750
vn -0.436066 0.881602 0.180624
vn -0.902877 0.212015 0.373983
vn -0.691032 0.212015 0.691031
vn -0.180624 0.881602 0.436065
vn -0.333750 0.881602 0.333750
vn -0.691032 0.212015 0.691031
vn -0.373984 0.212015 0.902876
vn 0.000000 0.881602 0.471994
vn -0.180624 0.881602 0.436065
vn -0.373984 0.212015 0.902876
vn 0.000000 0.212015 0.977266
vn 0.180624 0.881602 0.436065
vn 0.000000 0.881602 0.471994
vn 0.000000 0.212015 0.977266
vn 0.373984 0.212015 0.902876
vn 0.333750 0.881602 0.333750
vn 0.180624 0.881602 0.436065
vn 0.373984 0.212015 0.902876
vn 0.691032 0.212016 0.691031
vn 0.436066 0.881602 0.180624
vn 0.333750 0.881602 0.333750
vn 0.691032 0.212016 0.691031
vn 0.902876 0.212015 0.373983
vn 0.471994 0.881602 -0.000000
vn 0.436066 0.881602 0.180624
vn 0.902876 0.212015 0.373983
vn 0.977266 0.212015 -0.000000
vn 0.436065 0.881602 -0.180624
vn 0.333750 0.881602 -0.333750
vn -0.000000 1.000000 -0.000000
vn 0.471994 0.881602 -0.000000
s off
g SM_assets_wall_button_V01FBXASC046001
usemtl initialShadingGroup
f 16/31/1 1/66/2 19/18/3 49/55/4
f 3/38/5 4/51/6 25/68/7 22/41/8
f 24/28/9 27/64/10 17/34/11 23/14/12
f 5/11/13 6/49/14 29/44/15 26/58/16
f 28/29/17 31/63/18 17/34/19 27/64/20
f 7/17/21 8/39/22 33/27/23 30/1/24
f 32/12/25 35/43/26 17/34/27 31/63/28
f 9/36/29 10/15/30 37/35/31 34/16/32
f 36/7/33 39/26/34 17/34/35 35/43/36
f 11/25/37 12/65/38 41/61/39 38/32/40
f 40/57/41 43/42/42 17/34/43 39/26/44
f 13/8/45 14/33/46 45/37/47 42/20/48
f 44/19/49 47/5/50 17/34/51 43/42/52
f 15/6/53 16/31/54 49/55/55 46/52/56
f 48/21/57 18/62/58 17/34/59 47/5/60
f 1/66/61 2/54/62 21/13/63 19/18/64
f 4/51/65 5/11/66 26/58/67 25/68/68
f 6/48/69 7/17/70 30/1/71 29/9/72
f 8/39/73 9/36/74 34/16/75 33/27/76
f 10/15/77 11/25/78 38/32/79 37/35/80
f 12/65/81 13/8/82 42/20/83 41/61/84
f 14/33/85 15/6/86 46/52/87 45/37/88
f 2/54/89 3/38/90 22/41/91 21/13/92
f 20/3/93 18/30/94 19/18/95 21/13/96
f 23/50/97 20/3/98 21/13/99 22/41/100
f 24/47/101 23/50/102 22/41/103 25/68/104
f 27/22/105 24/47/106 25/68/107 26/58/108
f 28/67/109 27/22/110 26/58/111 29/44/112
f 31/56/113 28/10/114 29/9/115 30/1/116
f 32/59/117 31/56/118 30/1/119 33/27/120
f 35/2/121 32/59/122 33/27/123 34/16/124
f 36/40/125 35/2/126 34/16/127 37/35/128
f 39/60/129 36/40/130 37/35/131 38/32/132
f 40/4/133 39/60/134 38/32/135 41/61/136
f 43/46/137 40/4/138 41/61/139 42/20/140
f 44/23/141 43/46/142 42/20/143 45/37/144
f 47/53/145 44/23/146 45/37/147 46/52/148
f 48/45/149 47/53/150 46/52/151 49/55/152
f 18/30/153 48/45/154 49/55/155 19/18/156
f 20/24/157 23/14/158 17/34/159 18/62/160
